# xmcd CD database file generated by OrangeCD 5.0
#
# Track frame offsets:
#	150
#	18875
#	39350
#
# Disc length: 745 seconds
#
# Revision: 1
# Processed by: cddbd v1.4PL0 Copyright (c) Steve Scherf et al.
# Submitted via: OrangeCD 5.0
#
DISCID=1502e703
DTITLE=Jude Cole - Start The Car
DYEAR=1990
DGENRE=Blues
TTITLE0=Start The Car
TTITLE1=A Place In The Line
TTITLE2=Baby, It's Tonight
EXTD=
EXTT0=
EXTT1=
EXTT2=
PLAYORDER=
